<svg xmlns="http://www.w3.org/2000/svg" width="30.155" height="30" viewBox="0 0 22.109 22.109"><defs><style>.a{fill:#fff;}</style></defs><path class="a" d="M15.2,0H6.909A6.91,6.91,0,0,0,0,6.909V15.2a6.91,6.91,0,0,0,6.909,6.909H15.2A6.91,6.91,0,0,0,22.109,15.2V6.909A6.91,6.91,0,0,0,15.2,0Zm4.836,15.2A4.842,4.842,0,0,1,15.2,20.036H6.909A4.842,4.842,0,0,1,2.073,15.2V6.909A4.842,4.842,0,0,1,6.909,2.073H15.2a4.842,4.842,0,0,1,4.836,4.836Z"/><path class="a" d="M133.527,128a5.527,5.527,0,1,0,5.527,5.527A5.528,5.528,0,0,0,133.527,128Zm0,8.982a3.455,3.455,0,1,1,3.455-3.455A3.459,3.459,0,0,1,133.527,136.982Z" transform="translate(-122.473 -122.473)"/><circle class="a" cx="0.737" cy="0.737" r="0.737" transform="translate(16.26 4.376)"/></svg>