<svg xmlns="http://www.w3.org/2000/svg" width="30" height="30" viewBox="0 0 30 30"><defs><style>.a{fill:#fff;}</style></defs><path class="a" d="M29.667,3H6.333A3.332,3.332,0,0,0,3,6.333V29.667A3.332,3.332,0,0,0,6.333,33H29.667A3.332,3.332,0,0,0,33,29.667V6.333A3.332,3.332,0,0,0,29.667,3Zm-3.25,10.857v.572A11.644,11.644,0,0,1,14.7,26.143a12,12,0,0,1-6.285-1.857h1a9.24,9.24,0,0,0,5.143-1.715A4.166,4.166,0,0,1,10.7,19.715a6.241,6.241,0,0,1,.715.143,3.138,3.138,0,0,0,1.143-.143,4.128,4.128,0,0,1-3.285-4,7.128,7.128,0,0,0,1.857.572,4.681,4.681,0,0,1-1.857-3.572,3.281,3.281,0,0,1,.572-2A11.6,11.6,0,0,0,18.277,15c0-.285-.143-.572-.143-1a4.146,4.146,0,0,1,4.143-4.143,3.892,3.892,0,0,1,3,1.285,6.935,6.935,0,0,0,2.572-1,4.176,4.176,0,0,1-1.857,2.285,7.815,7.815,0,0,0,2.428-.715A9.647,9.647,0,0,1,26.417,13.857Z" transform="translate(-3 -3)"/></svg>